<?xml version="1.0" standalone="no"?>
<!DOCTYPE svg PUBLIC "-//W3C//DTD SVG 20010904//EN"
 "http://www.w3.org/TR/2001/REC-SVG-20010904/DTD/svg10.dtd">
<svg version="1.0" xmlns="http://www.w3.org/2000/svg"
 width="250.000000pt" height="250.000000pt" viewBox="0 0 250.000000 250.000000"
 preserveAspectRatio="xMidYMid meet">
<metadata>
Created by potrace 1.15, written by Peter Selinger 2001-2017
</metadata>
<g transform="translate(0.000000,250.000000) scale(0.100000,-0.100000)"
fill="#000000" stroke="none">
<path d="M1410 2183 c-57 -10 -158 -46 -210 -75 -37 -21 -75 -33 -115 -37
l-60 -6 -5 -55 c-3 -38 -14 -69 -34 -100 -30 -46 -76 -153 -76 -177 0 -17 -14
-17 -116 7 -48 11 -91 19 -95 18 -5 -2 13 -66 40 -143 26 -77 72 -210 100
-295 29 -85 57 -159 62 -165 6 -6 30 11 64 45 l55 54 0 -70 c0 -41 5 -75 12
-82 9 -9 4 -12 -23 -12 -42 0 -470 -141 -470 -155 -1 -5 276 -103 614 -216
l615 -206 -56 -17 c-32 -9 -66 -21 -77 -26 -46 -22 -226 -80 -246 -80 -24 0
-449 142 -449 150 0 3 41 18 91 33 53 16 89 33 87 39 -4 11 -142 61 -261 95
l-59 16 -108 -33 -108 -32 -204 67 c-111 38 -209 70 -215 73 -9 2 -13 -5 -13
-22 0 -21 7 -30 33 -40 17 -8 296 -101 619 -207 l587 -193 403 134 c222 73
409 138 416 143 6 5 12 21 12 36 0 15 8 31 20 39 20 12 20 23 20 521 l0 508
-42 12 c-146 40 -766 246 -762 252 6 11 81 22 145 21 113 -1 227 -39 366 -122
28 -17 54 -27 57 -22 11 19 -39 99 -101 161 -76 75 -177 131 -278 154 -59 14
-186 19 -235 10z"/>
</g>
</svg>
